PathFileType	4	(X/Y/Z)	10_1_50_p1_0-359_filt_butterworth.trc
DataRate	CameraRate	NumFrames	NumMarkers	Units	OrigDataRate	OrigDataStartFrame	OrigNumFrames
59.0	59.0	5	27	m	59.0	44	359
Frame#	Time	RHip			RKnee			RAnkle			RBigToe			RSmallToe			RHeel			LHip			LKnee			LAnkle			LBigToe			LSmallToe			LHeel			Neck			Head			Nose			RShoulder			RElbow			RWrist			RThumb			RIndex			RPinky			LShoulder			LElbow			LWrist			LThumb			LIndex			LPinky			
		X1	Y1	Z1	X2	Y2	Z2	X3	Y3	Z3	X4	Y4	Z4	X5	Y5	Z5	X6	Y6	Z6	X7	Y7	Z7	X8	Y8	Z8	X9	Y9	Z9	X10	Y10	Z10	X11	Y11	Z11	X12	Y12	Z12	X13	Y13	Z13	X14	Y14	Z14	X15	Y15	Z15	X16	Y16	Z16	X17	Y17	Z17	X18	Y18	Z18	X19	Y19	Z19	X20	Y20	Z20	X21	Y21	Z21	X22	Y22	Z22	X23	Y23	Z23	X24	Y24	Z24	X25	Y25	Z25	X26	Y26	Z26	X27	Y27	Z27	
44	0.7457627118644068	0.32128747660231777	0.7824185482008726	0.6761360832558642	0.3181891106369239	0.30764172669225043	0.7416127462449642	0.31285758040104356	-0.09100881591408595	0.774764208894779	0.28083752198113776	-0.15180450828685688	0.6064088228389551	0.35645120067110886	-0.15072475615564476	0.6397948008053383	0.26707104224631945	-0.17774045718814785	0.8493480312320445	0.11060116534362814	0.7697122788219268	0.6883586892479159	0.07931443613657103	0.3242676094300772	0.7214560590663627	0.0805186514757029	-0.04522277481142256	0.7448520066263581	0.09488164372800169	-0.17610443725055594	0.6237367634632716	0.052386153340775926	-0.12046157860550588	0.6072841002916131	0.09651343519723411	-0.09884308954607009	0.776257969782988	0.21357845957609423	1.317539713990444	0.6945628892533728	0.21583461485198133	1.5468604311030687	0.6743880959694437	0.21985519263937459	1.4435165062037432	0.6348681752980841	0.3838234065251591	1.1923660115046035	0.7041614546881808	0.4352230582589655	0.9192893505004409	0.6534417859008024	0.4422018606110447	0.6843285128739667	0.607626727318159	0.42060787752323064	0.587699856442173	0.5719464876665525	0.4367931681178397	0.5571258672391387	0.5740619304788392	0.4476705256110909	0.5732540203243504	0.6005719785676764	0.050230915418642844	1.1986775707986457	0.7126226721872877	-0.013643586705607145	0.9155210223675019	0.6868107578625035	-0.036430108118889526	0.6856206810608562	0.6405799320972595	-0.003521635006086393	0.5919290406554878	0.5909716617677923	-0.030741248226810756	0.5727957549156605	0.5535899183733088	-0.061269434090171375	0.5704599516400235	0.6009462119120921	
45	0.7627118644067796	0.3209712617167617	0.7799676072433681	0.6773049657813934	0.31806844995516365	0.30739889098151785	0.7408602574951297	0.3130110144748749	-0.09131174385500758	0.7746664877184135	0.2797642553991822	-0.15051743003321158	0.6044303329101662	0.3550607248206452	-0.1507487940117481	0.6385735107393139	0.2675366463664493	-0.177487006489251	0.8485207414458071	0.11097823307817913	0.7685655898586748	0.6886824545300569	0.07918202232115618	0.3241341946520122	0.720828413067717	0.08038074124902442	-0.04598155193714468	0.7448303748266955	0.09369274357504766	-0.17549490431971448	0.623293305274415	0.05152413382747492	-0.12198781260554274	0.6099407602375925	0.09607492546391	-0.09966045099439073	0.7752613907600117	0.21365112962099903	1.3160296587221312	0.6941939543580193	0.2158939965783414	1.5469316897576941	0.6743860968983655	0.21950607396610664	1.4432163862306913	0.6346625552707374	0.38378065488640556	1.1915542092455833	0.7027484587280373	0.4357460815873688	0.9173518448278399	0.6555394495671222	0.44656164848403834	0.682710964607491	0.6144239069962039	0.42646341441903235	0.5885040902905581	0.5704183276101611	0.44167479174657837	0.5583273612259236	0.5784156001327367	0.4524114179630201	0.567716589105085	0.6153382266696785	0.050287317134108334	1.1984028019854283	0.7125518620857889	-0.017048962368580833	0.9132639802295324	0.6923214402048522	-0.04155819273937706	0.6841048790931507	0.6495352262795178	-0.011426191057616789	0.5885806568111952	0.6037910922796972	-0.042554767315178654	0.5701588041535965	0.5658549679867968	-0.06624761045352202	0.5742456028739247	0.5998300684826536	
46	0.7796610169491526	0.3205635258650729	0.778053738275218	0.6783551389819328	0.3179013141539071	0.30756497244143505	0.7400227592157295	0.3132334594597103	-0.09162703978956611	0.7744778973545651	0.2784398530893575	-0.14919142304741867	0.601859053747134	0.3533919567306846	-0.1501729256393292	0.636357792363135	0.26808301795294814	-0.17739372912100332	0.8479837080611392	0.11097542313733123	0.7675462911919497	0.6894266779872985	0.07908807133834031	0.32396433380600864	0.720517028208641	0.08023538731989704	-0.04658736556283202	0.7448178523545852	0.09310678585802454	-0.1748608255558912	0.6222169959692472	0.05042889443805044	-0.12365726128158624	0.6130219499501123	0.09573943289726501	-0.10024048564399618	0.7749349097591669	0.2137185787665844	1.314690457896904	0.6939340203375608	0.21597048192552126	1.5469590241264228	0.6743795622217897	0.21891264086235285	1.4426999073425921	0.6343962836279351	0.38320329007584053	1.191234100992187	0.7013156532968556	0.43592366185138415	0.9156797072405174	0.6567504117145867	0.44959285694599616	0.6816344155934247	0.6197966109955594	0.4297105713567794	0.5891654975598251	0.5690228998398539	0.4452430484313482	0.5592271265484116	0.5820152159688012	0.45662722241780207	0.562768603665979	0.6282279146632681	0.05032942568319235	1.1983572253601233	0.7125562925805695	-0.01881608845899964	0.9117715800038643	0.694962737875285	-0.04438595234249037	0.6831475561676303	0.6562526731891523	-0.019648453098158398	0.5852099058449355	0.6197480170219174	-0.053388512449698854	0.5676035532258148	0.5773049396729869	-0.06968783272580453	0.5778467623602076	0.5979417984263526	
47	0.7966101694915254	0.3200999380216469	0.7765640270957173	0.6790470545862684	0.31767748635925447	0.3079714670793015	0.7391449571725931	0.31348497758209565	-0.09192270744653858	0.7742812617451639	0.27693793447241044	-0.14820510000009027	0.5990239785807023	0.3517570534935725	-0.14935732026967127	0.6338630685643712	0.2685857808909822	-0.17748373120706745	0.8478938856433911	0.11042005264970216	0.7664585170549231	0.6904245665595568	0.079051078826156	0.32373349205428525	0.7205292577208454	0.08010903644718094	-0.046974896793029464	0.7448304717765104	0.09325109190183145	-0.17422190552800662	0.6205029470854819	0.04935328183688427	-0.12517428322221597	0.6158768748862027	0.09554572562872561	-0.10056306070052912	0.7751728162827469	0.2137725626220187	1.3134578021045769	0.69381258266928	0.21599541795672667	1.5469648103186295	0.6743444547397544	0.21817871161644004	1.442032453331475	0.6341948822756076	0.3819951379361072	1.1914435784358426	0.6996229103290569	0.435898324474937	0.9145915744213444	0.6570611420023195	0.451281695090149	0.6808827682802845	0.6239817889128109	0.4311047345853418	0.5893611581575416	0.5686906265485889	0.44764277143589926	0.5596139812512713	0.5851063387310128	0.4598056450173949	0.5590400259735061	0.6378681749690243	0.05035546406283255	1.1984597731432496	0.7126151257477683	-0.01940448057608611	0.9108316148017332	0.6961208492483262	-0.045511915199691694	0.6822658538899478	0.6615918352709739	-0.027270246881933063	0.5821046329898784	0.6366956668817926	-0.06162337191050416	0.5655435313441044	0.5864191563164519	-0.07188061004430954	0.5806001027369716	0.5973822550874691	
48	0.8135593220338984	0.31967669455969333	0.7753129447010637	0.6793386546482304	0.3174083980871547	0.308422963601337	0.7382103148193566	0.313690306200593	-0.09222834387851561	0.7742355957572461	0.2754476908797385	-0.14742061066568332	0.5962644291791706	0.3504428915430624	-0.14848889236273963	0.6315949420244316	0.26898524659255163	-0.17772576310330465	0.8482072140438689	0.1094507186689355	0.7652560926518099	0.6914670672755534	0.07904897795998352	0.3234867963334813	0.7208306188331255	0.08000455085044575	-0.047123504473465416	0.7448852641873548	0.09399599057745556	-0.17352088361386334	0.618354129870423	0.048589436585286014	-0.1261691420168366	0.6175913047166308	0.0954722685829608	-0.10071347039470335	0.7758710343254648	0.21380916635273362	1.3123275245861508	0.6938237532188506	0.21597724758217524	1.5470013168267958	0.6743066028889281	0.21741923136905594	1.4413077075061835	0.6341247417891915	0.38016124812007535	1.1920073294233693	0.6975345684582608	0.43581587966914104	0.9143070117835207	0.6568230312811681	0.45189087417467283	0.6801770638840873	0.6277308003560665	0.4313569470620596	0.5890189100561913	0.5695907966552978	0.44886122905591375	0.5597236600004736	0.5874957551575499	0.4617776721494318	0.556958095034327	0.6436577683020233	0.05037054610737232	1.1985871962004286	0.7126781717645038	-0.0194244153041681	0.9101809157456197	0.6974113447513741	-0.04577885067981649	0.6808241369866125	0.667144712841832	-0.033046949166867776	0.5797191216449677	0.652074459215934	-0.06632732187974281	0.5638678776181302	0.5934842449051663	-0.07277990595178593	0.5821632920477494	0.598875762695622	
